<!-- vite-project/app/games/supermario/assets/mario.svg -->
<svg xmlns="http://www.w3.org/2000/svg"
     viewBox="0 0 512 512"
     preserveAspectRatio="xMidYMid slice"
     style="width:64px;height:64px;">
  <defs>
    <!-- Frame 0 – standing (default for idle) -->
    <symbol id="mario-0">
      <rect x="176" y="256" width="160" height="256" fill="#1e90ff"/>
      <rect x="192" y="320" width="128" height="80" fill="#fff"/>
      <rect x="224" y="352" width="64" height="144" fill="#ff0000"/>
    </symbol>

    <!-- Frame 1 – stepping forward, left leg moved -->
    <symbol id="mario-1">
      <rect x="176" y="256" width="160" height="256" fill="#1e90ff"/>
      <rect x="192" y="320" width="128" height="80" fill="#fff"/>
      <rect x="224" y="352" width="64" height="144" fill="#ff0000"/>
      <rect x="208" y="384" width="16" height="64" fill="#000"/>  <!-- left foot -->
    </symbol>

    <!-- Frame 2 – stepping forward, right leg moved -->
    <symbol id="mario-2">
      <rect x="176" y="256" width="160" height="256" fill="#1e90ff"/>
      <rect x="192" y="320" width="128" height="80" fill="#fff"/>
      <rect x="224" y="352" width="64" height="144" fill="#ff0000"/>
      <rect x="304" y="384" width="16" height="64" fill="#000"/>  <!-- right foot -->
    </symbol>

    <!-- Frame 3 – jump apex -->
    <symbol id="mario-3">
      <rect x="176" y="208" width="160" height="304" fill="#1e90ff"/>
      <rect x="192" y="272" width="128" height="80" fill="#fff"/>
      <rect x="224" y="304" width="64" height="144" fill="#ff0000"/>
      <polygon points="256,256 240,240 272,240" fill="#ff0"/> <!-- mouth -->
    </symbol>

    <!-- Frame 4 – landing (stiff legs) -->
    <symbol id="mario-4">
      <rect x="176" y="256" width="160" height="256" fill="#1e90ff"/>
      <rect x="192" y="320" width="128" height="80" fill="#fff"/>
      <rect x="224" y="352" width="64" height="144" fill="#ff0000"/>
      <rect x="200" y="384" width="24" height="8" fill="#000"/>
    </symbol>

    <!-- Frame 5 – dead (facing left) -->
    <symbol id="mario-5">
      <rect x="176" y="256" width="160" height="256" fill="#888"/>
      <rect x="192" y="320" width="128" height="80" fill="#444"/>
      <rect x="224" y="352" width="64" height="144" fill="#222"/>
      <path d="M 200 256 l 40 80" stroke="#000" stroke-width="8"/>
      <path d="M 240 256 l -40 80" stroke="#000" stroke-width="8"/>
    </symbol>
  </defs>
</svg>
